<?xml version="1.0" ?><svg height="24px" version="1.1" viewBox="0 0 24 24" width="24px" xmlns="http://www.w3.org/2000/svg" xmlns:sketch="http://www.bohemiancoding.com/sketch/ns" xmlns:xlink="http://www.w3.org/1999/xlink"><title/><desc/><defs/><g fill="none" fill-rule="evenodd" id="miu" stroke="none" stroke-width="1"><g id="Artboard-1" transform="translate(-575.000000, -299.000000)"><g id="slice" transform="translate(215.000000, 119.000000)"/><path d="M593.875,318.01931 L594.5625,317.963901 C596.513625,317.64613 598,315.998527 598,314.013793 C598,312.26939 596.851875,310.785346 595.248625,310.235923 C595.190875,306.781832 592.288937,304 588.71875,304 C586.143375,304 583.916563,305.447327 582.853,307.550223 C582.34975,307.010146 581.621688,306.670345 580.8125,306.670345 C579.293813,306.670345 578.0625,307.865992 578.0625,309.34069 C578.0625,309.725887 578.146375,310.091724 578.296938,310.422179 C576.935687,311.076414 576,312.438957 576,314.013793 C576,315.998527 577.486375,317.64613 579.4375,317.963901 L580.125,318.01931 L586.931034,318.01931 L587.068965,318 L593.875,318.01931 Z M593.877837,317.019314 L594.401752,316.976905 C595.897527,316.733295 597,315.479948 597,314.013793 C597,312.736522 596.162278,311.606116 594.924439,311.181916 L594.260497,310.954388 L594.248765,310.25264 C594.200183,307.346899 591.745524,305 588.71875,305 C586.579673,305 584.665599,306.182034 583.745361,308.001545 L583.098491,309.280551 L582.121389,308.231946 C581.791103,307.87749 581.320902,307.670345 580.8125,307.670345 C579.839626,307.670345 579.0625,308.424961 579.0625,309.34069 C579.0625,309.574129 579.112001,309.799205 579.206935,310.007565 L579.613136,310.899097 L578.730118,311.323487 C577.675676,311.830265 577,312.865772 577,314.013793 C577,315.479948 578.102473,316.733295 579.517835,316.967133 L580.125,317.01931 L593.877837,317.019314 Z" fill="#000000" id="cloud-weather-forecast-cloudy-outline-stroke"/></g></g></svg>